<svg id="visual" viewBox="0 0 900 600" width="900" height="600" xmlns="http://www.w3.org/2000/svg" xmlns:xlink="http://www.w3.org/1999/xlink" version="1.1"><rect x="0" y="0" width="900" height="600" fill="#001122"></rect><path d="M0 407L21.5 403C43 399 86 391 128.8 390.3C171.7 389.7 214.3 396.3 257.2 394C300 391.7 343 380.3 385.8 383C428.7 385.7 471.3 402.3 514.2 399.8C557 397.3 600 375.7 642.8 370.3C685.7 365 728.3 376 771.2 388.3C814 400.7 857 414.3 878.5 421.2L900 428L900 601L878.5 601C857 601 814 601 771.2 601C728.3 601 685.7 601 642.8 601C600 601 557 601 514.2 601C471.3 601 428.7 601 385.8 601C343 601 300 601 257.2 601C214.3 601 171.7 601 128.8 601C86 601 43 601 21.5 601L0 601Z" fill="#4f6e9b"></path><path d="M0 476L21.5 472.2C43 468.3 86 460.7 128.8 453C171.7 445.3 214.3 437.7 257.2 429C300 420.3 343 410.7 385.8 408C428.7 405.3 471.3 409.7 514.2 409.2C557 408.7 600 403.3 642.8 404C685.7 404.7 728.3 411.3 771.2 417.8C814 424.3 857 430.7 878.5 433.8L900 437L900 601L878.5 601C857 601 814 601 771.2 601C728.3 601 685.7 601 642.8 601C600 601 557 601 514.2 601C471.3 601 428.7 601 385.8 601C343 601 300 601 257.2 601C214.3 601 171.7 601 128.8 601C86 601 43 601 21.5 601L0 601Z" fill="#386a8d"></path><path d="M0 458L21.5 464.2C43 470.3 86 482.7 128.8 486.5C171.7 490.3 214.3 485.7 257.2 476.7C300 467.7 343 454.3 385.8 452.2C428.7 450 471.3 459 514.2 465.2C557 471.3 600 474.7 642.8 479.2C685.7 483.7 728.3 489.3 771.2 490.5C814 491.7 857 488.3 878.5 486.7L900 485L900 601L878.5 601C857 601 814 601 771.2 601C728.3 601 685.7 601 642.8 601C600 601 557 601 514.2 601C471.3 601 428.7 601 385.8 601C343 601 300 601 257.2 601C214.3 601 171.7 601 128.8 601C86 601 43 601 21.5 601L0 601Z" fill="#27647d"></path><path d="M0 497L21.5 503.5C43 510 86 523 128.8 528C171.7 533 214.3 530 257.2 529.8C300 529.7 343 532.3 385.8 526.3C428.7 520.3 471.3 505.7 514.2 498.7C557 491.7 600 492.3 642.8 499.8C685.7 507.3 728.3 521.7 771.2 529.5C814 537.3 857 538.7 878.5 539.3L900 540L900 601L878.5 601C857 601 814 601 771.2 601C728.3 601 685.7 601 642.8 601C600 601 557 601 514.2 601C471.3 601 428.7 601 385.8 601C343 601 300 601 257.2 601C214.3 601 171.7 601 128.8 601C86 601 43 601 21.5 601L0 601Z" fill="#215d6c"></path><path d="M0 536L21.5 539.3C43 542.7 86 549.3 128.8 554.7C171.7 560 214.3 564 257.2 560.5C300 557 343 546 385.8 542.8C428.7 539.7 471.3 544.3 514.2 546.7C557 549 600 549 642.8 550.3C685.7 551.7 728.3 554.3 771.2 555C814 555.7 857 554.3 878.5 553.7L900 553L900 601L878.5 601C857 601 814 601 771.2 601C728.3 601 685.7 601 642.8 601C600 601 557 601 514.2 601C471.3 601 428.7 601 385.8 601C343 601 300 601 257.2 601C214.3 601 171.7 601 128.8 601C86 601 43 601 21.5 601L0 601Z" fill="#23565b"></path></svg>